# xmcd
#
# Track frame offsets:
#	183
#	14258
#	25965
#	39733
#	51608
#	62450
#	86893
#	96123
#	113983
#	124083
#	136693
#	151700
#	163250
#	174558
#	185025
#	207208
#	220795
#	239373
#
# Disc length: 3305 seconds
#
# Revision: 0
# Processed by: cddbd v1.5.1PL0 Copyright (c) Steve Scherf et al.
# Submitted via: dBpowerAMP V4.0
#
DISCID=fc0ce712
DTITLE=Nev Nichols - Loaded Up and Truckin'
DYEAR=1998
DGENRE=Truck Songs
TTITLE0=East Bound And Down
TTITLE1=Jack Knife
TTITLE2=Lights On The Hill
TTITLE3=Supertrucker
TTITLE4=A Cowboys A Cowboy
TTITLE5=Teddy Bear
TTITLE6=Kepp On Truckin'
TTITLE7=Giddy-Up Go
TTITLE8=Motivatin' Man
TTITLE9=Motivatin' Day
TTITLE10=Bulldog Mack
TTITLE11=Blazing Diesels
TTITLE12=Six Days On The Road
TTITLE13=Truck Driving Man
TTITLE14=Teddy Bear's Last Ride
TTITLE15=The Devil Made The Truck Driving Man
TTITLE16=Phantom 309
TTITLE17=When The Big Rigs Roll
EXTD=Part of set of 4cds, submitted by Cap-Elf
EXTT0=
EXTT1=
EXTT2=
EXTT3=
EXTT4=
EXTT5=
EXTT6=
EXTT7=
EXTT8=
EXTT9=
EXTT10=
EXTT11=
EXTT12=
EXTT13=
EXTT14=
EXTT15=
EXTT16=
EXTT17=
PLAYORDER=
